<?xml version="1.0" standalone="no"?>
<!DOCTYPE svg PUBLIC "-//W3C//DTD SVG 20010904//EN"
 "http://www.w3.org/TR/2001/REC-SVG-20010904/DTD/svg10.dtd">
<svg version="1.0" xmlns="http://www.w3.org/2000/svg"
 width="177.000000pt" height="177.000000pt" viewBox="0 0 177.000000 177.000000"
 preserveAspectRatio="xMidYMid meet">

<g transform="translate(0.000000,177.000000) scale(0.100000,-0.100000)"
fill="#000000" stroke="none">
<path d="M10 1012 c0 -2 18 -44 40 -93 22 -49 40 -105 40 -124 0 -32 2 -35 30
-35 29 0 30 2 30 43 0 28 13 69 39 122 l38 80 -24 3 c-39 5 -49 -3 -63 -52 -7
-25 -16 -46 -19 -46 -4 0 -15 22 -25 49 -16 44 -21 49 -52 53 -19 2 -34 2 -34
0z"/>
<path d="M490 885 l0 -131 35 4 c33 4 35 6 35 43 0 51 21 51 45 0 15 -34 22
-40 56 -43 21 -2 39 -2 39 1 0 2 -11 24 -26 48 l-25 43 20 27 c26 32 27 74 2
104 -17 21 -30 25 -100 29 l-81 5 0 -130z m125 45 c0 -20 -6 -26 -27 -28 -25
-3 -28 0 -28 28 0 28 3 31 28 28 21 -2 27 -8 27 -28z"/>
<path d="M1630 1013 c-33 -12 -50 -37 -50 -73 0 -41 11 -54 73 -85 22 -11 41
-24 41 -30 1 -14 -49 -18 -72 -6 -15 8 -23 6 -37 -9 -22 -24 -14 -37 34 -51
80 -24 141 10 141 77 0 35 -17 53 -74 80 -48 23 -47 39 2 39 20 0 43 4 50 8
44 29 -48 72 -108 50z"/>
<path d="M262 899 c-19 -62 -36 -118 -39 -126 -4 -9 5 -13 30 -13 29 0 36 4
41 25 5 21 12 25 45 25 33 0 40 -4 43 -22 2 -18 10 -24 39 -26 l37 -3 -38 123
-38 123 -43 3 -44 3 -33 -112z m93 -1 c7 -36 6 -38 -20 -38 -19 0 -26 4 -22
14 3 8 9 31 13 52 8 42 18 32 29 -28z"/>
<path d="M1270 885 l0 -125 31 0 32 0 -5 78 c-6 83 -4 82 36 -20 21 -54 40
-48 67 25 l24 62 3 -72 3 -73 29 0 30 0 0 126 0 125 -36 -3 c-35 -3 -37 -6
-60 -67 -29 -76 -32 -80 -40 -55 -3 10 -15 43 -27 72 -19 48 -23 52 -54 52
l-33 0 0 -125z"/>
</g>
</svg>
